<svg width="176" height="44" viewBox="0 0 176 44" fill="none" xmlns="http://www.w3.org/2000/svg">
<path d="M53.7578 21.1186H47.5429C46.6572 21.1186 45.9427 20.407 45.9427 19.5315V17.8009C45.9427 16.9224 46.6601 16.2137 47.5429 16.2137H53.7578C54.6435 16.2137 55.358 16.9253 55.358 17.8009V19.5315C55.358 20.407 54.6435 21.1186 53.7578 21.1186Z" fill="url(#paint0_linear_59_959)"/>
<path d="M53.7578 21.1186H47.5429C46.6572 21.1186 45.9427 20.407 45.9427 19.5315V17.8009C45.9427 16.9224 46.6601 16.2137 47.5429 16.2137H53.7578C54.6435 16.2137 55.358 16.9253 55.358 17.8009V19.5315C55.358 20.407 54.6435 21.1186 53.7578 21.1186Z" fill="url(#paint1_linear_59_959)"/>
<path d="M38.1394 0.808174L40.3656 2.98973C41.4107 4.01462 41.4107 5.68958 40.3656 6.7174L32.0752 14.8404C31.0418 15.8536 29.3737 15.8477 28.3492 14.8257L26.191 12.6764C25.1635 11.6515 25.1665 9.99705 26.1939 8.97508L34.4164 0.819887C35.4439 -0.199147 37.1061 -0.202075 38.1394 0.808174Z" fill="url(#paint2_linear_59_959)"/>
<path d="M38.1394 0.808174L40.3656 2.98973C41.4107 4.01462 41.4107 5.68958 40.3656 6.7174L32.0752 14.8404C31.0418 15.8536 29.3737 15.8477 28.3492 14.8257L26.191 12.6764C25.1635 11.6515 25.1665 9.99705 26.1939 8.97508L34.4164 0.819887C35.4439 -0.199147 37.1061 -0.202075 38.1394 0.808174Z" fill="url(#paint3_linear_59_959)"/>
<path d="M53.7578 21.1186H47.5429C46.6572 21.1186 45.9427 20.407 45.9427 19.5315V17.8009C45.9427 16.9224 46.6601 16.2137 47.5429 16.2137H53.7578C54.6435 16.2137 55.358 16.9253 55.358 17.8009V19.5315C55.358 20.407 54.6435 21.1186 53.7578 21.1186Z" fill="url(#paint4_linear_59_959)"/>
<path d="M53.7578 21.1186H47.5429C46.6572 21.1186 45.9427 20.407 45.9427 19.5315V17.8009C45.9427 16.9224 46.6601 16.2137 47.5429 16.2137H53.7578C54.6435 16.2137 55.358 16.9253 55.358 17.8009V19.5315C55.358 20.407 54.6435 21.1186 53.7578 21.1186Z" fill="url(#paint5_linear_59_959)"/>
<path d="M53.7578 21.1186H47.5429C46.6572 21.1186 45.9427 20.407 45.9427 19.5315V17.8009C45.9427 16.9224 46.6601 16.2137 47.5429 16.2137H53.7578C54.6435 16.2137 55.358 16.9253 55.358 17.8009V19.5315C55.358 20.407 54.6435 21.1186 53.7578 21.1186Z" fill="url(#paint6_linear_59_959)"/>
<path d="M38.1394 0.808174L40.3656 2.98973C41.4107 4.01462 41.4107 5.68958 40.3656 6.7174L32.0752 14.8404C31.0418 15.8536 29.3737 15.8477 28.3492 14.8257L26.191 12.6764C25.1635 11.6515 25.1665 9.99705 26.1939 8.97508L34.4164 0.819887C35.4439 -0.199147 37.1061 -0.202075 38.1394 0.808174Z" fill="url(#paint7_linear_59_959)"/>
<path d="M38.1394 0.808174L40.3656 2.98973C41.4107 4.01462 41.4107 5.68958 40.3656 6.7174L32.0752 14.8404C31.0418 15.8536 29.3737 15.8477 28.3492 14.8257L26.191 12.6764C25.1635 11.6515 25.1665 9.99705 26.1939 8.97508L34.4164 0.819887C35.4439 -0.199147 37.1061 -0.202075 38.1394 0.808174Z" fill="url(#paint8_linear_59_959)"/>
<path d="M38.1394 0.808174L40.3656 2.98973C41.4107 4.01462 41.4107 5.68958 40.3656 6.7174L32.0752 14.8404C31.0418 15.8536 29.3737 15.8477 28.3492 14.8257L26.191 12.6764C25.1635 11.6515 25.1665 9.99705 26.1939 8.97508L34.4164 0.819887C35.4439 -0.199147 37.1061 -0.202075 38.1394 0.808174Z" fill="url(#paint9_linear_59_959)"/>
<path d="M10.2568 0.770087C9.32675 -0.246018 7.81806 -0.260659 6.87328 0.743733L4.85382 2.89015C3.89723 3.90625 3.88542 5.57536 4.8243 6.60903L12.5833 15.139C13.3302 15.9619 13.3302 17.2884 12.5833 18.1112L0.696805 30.7379C-0.239114 31.7657 -0.230257 33.426 0.714519 34.4451L2.69264 36.5739C3.63447 37.5871 5.14611 37.5812 6.08203 36.5622L23.0555 18.4743C23.9944 17.4524 23.9944 15.7979 23.0585 14.773L10.2568 0.770087Z" fill="url(#paint10_linear_59_959)"/>
<path d="M63.4152 3.33234V8.83746V28.5271C63.4152 32.5915 60.324 34.8199 56.5478 34.8199C55.0923 34.8199 52.9459 34.8638 51.3279 34.4363H51.325C48.3607 33.3645 44.0709 30.1464 40.4984 26.8638C40.4542 26.814 40.4128 26.7672 40.3656 26.7203L37.487 23.9004C37.3482 23.7511 37.2124 23.6047 37.0795 23.4612L37.0589 23.4788L32.0752 18.5973C31.0418 17.5842 29.3766 17.59 28.3492 18.612L26.191 20.7613C25.1635 21.7862 25.1665 23.4407 26.1969 24.4626L30.5665 28.7965C31.5703 29.8946 34.3426 33.1039 38.0361 36.2137C41.7296 39.3265 46.3472 42.3397 51.0445 43.0542C51.139 43.0688 51.2305 43.0834 51.325 43.0951C52.6063 43.2796 53.8788 43.3997 55.1366 43.3997C55.3108 43.3997 55.4849 43.3968 55.6562 43.3938C56.539 43.4173 57.4749 43.3118 58.3724 43.1771C58.5289 43.1537 58.6854 43.1274 58.8419 43.1039C59.0308 43.0746 59.2139 43.0424 59.3969 43.0132C59.4058 43.0132 59.4146 43.0102 59.4235 43.0102C63.8078 42.4714 67.5928 40.5154 69.94 37.388C71.5402 35.2562 72.4732 32.5798 72.4732 29.4378V3.33234H63.4152Z" fill="url(#paint11_linear_59_959)"/>
<path d="M93.3291 14.366C84.2681 14.366 78.012 20.3572 78.012 29.1303C78.012 37.8477 84.2681 43.8917 93.3291 43.8917C102.443 43.8917 108.699 37.8477 108.699 29.1303C108.699 20.3572 102.443 14.366 93.3291 14.366ZM93.3291 36.8316C89.1219 36.8316 86.1577 33.6223 86.1577 29.1303C86.1577 24.6354 89.1219 21.4261 93.3291 21.4261C97.5895 21.4261 100.557 24.6354 100.557 29.1303C100.557 33.6223 97.5895 36.8316 93.3291 36.8316Z" fill="white"/>
<path d="M132.266 14.366C128.49 14.366 125.363 15.9707 123.152 18.7526V3.13324H115.062V42.8228H123.042V39.5051C125.254 42.2343 128.436 43.8917 132.266 43.8917C139.921 43.8917 145.369 37.795 145.369 29.1303C145.369 20.4656 139.977 14.366 132.266 14.366ZM130.054 36.6706C125.847 36.6706 122.827 33.4612 122.827 29.1303C122.827 24.7965 125.847 21.5871 130.054 21.5871C134.259 21.5871 137.279 24.7965 137.279 29.1303C137.279 33.5168 134.205 36.6706 130.054 36.6706Z" fill="white"/>
<path d="M163.325 25.8653C160.199 25.3851 157.772 24.8521 157.772 23.0308C157.825 21.2123 159.821 19.9297 162.301 19.9297C165.537 19.9297 167.964 21.4817 167.964 23.7277H175.085C175.085 18.2167 169.744 14.2606 162.357 14.2606C155.614 14.2606 150.491 18.1113 150.491 23.4583C150.491 30.1464 155.614 31.1098 161.763 31.8565C165.106 32.1786 168.235 32.8199 168.235 35.1215C168.235 36.94 166.077 38.3309 163.11 38.3309C159.605 38.3309 157.072 36.4041 157.072 33.675H150.222C150.166 39.6662 155.56 44 163.003 44C170.715 44 176 39.8799 176 34.1581C176 27.7394 168.935 26.6149 163.325 25.8653Z" fill="white"/>
<defs>
<linearGradient id="paint0_linear_59_959" x1="45.9411" y1="18.6643" x2="55.3592" y2="18.6643" gradientUnits="userSpaceOnUse">
<stop stop-color="#FFB370"/>
<stop offset="0.2364" stop-color="#FF9284"/>
<stop offset="0.7562" stop-color="#FF4FAE"/>
<stop offset="1" stop-color="#FF34BF"/>
</linearGradient>
<linearGradient id="paint1_linear_59_959" x1="45.9411" y1="18.6643" x2="55.3592" y2="18.6643" gradientUnits="userSpaceOnUse">
<stop stop-color="#FFB370"/>
<stop offset="0.2364" stop-color="#FF9284"/>
<stop offset="0.7562" stop-color="#FF4FAE"/>
<stop offset="1" stop-color="#FF34BF"/>
</linearGradient>
<linearGradient id="paint2_linear_59_959" x1="25.4228" y1="7.82308" x2="41.1506" y2="7.82308" gradientUnits="userSpaceOnUse">
<stop stop-color="#FFB370"/>
<stop offset="0.2364" stop-color="#FF9284"/>
<stop offset="0.7562" stop-color="#FF4FAE"/>
<stop offset="1" stop-color="#FF34BF"/>
</linearGradient>
<linearGradient id="paint3_linear_59_959" x1="25.4228" y1="7.82308" x2="41.1506" y2="7.82308" gradientUnits="userSpaceOnUse">
<stop stop-color="#FFB370"/>
<stop offset="0.2364" stop-color="#FF9284"/>
<stop offset="0.7562" stop-color="#FF4FAE"/>
<stop offset="1" stop-color="#FF34BF"/>
</linearGradient>
<linearGradient id="paint4_linear_59_959" x1="22.8648" y1="6.79655" x2="37.0969" y2="9.66646" gradientUnits="userSpaceOnUse">
<stop stop-color="#650CFE"/>
<stop offset="0.2538" stop-color="#771DFE"/>
<stop offset="0.7575" stop-color="#A449FF"/>
<stop offset="1" stop-color="#BC61FF"/>
</linearGradient>
<linearGradient id="paint5_linear_59_959" x1="22.8648" y1="6.79655" x2="37.0969" y2="9.66646" gradientUnits="userSpaceOnUse">
<stop stop-color="#650CFE"/>
<stop offset="0.2538" stop-color="#771DFE"/>
<stop offset="0.7575" stop-color="#A449FF"/>
<stop offset="1" stop-color="#BC61FF"/>
</linearGradient>
<linearGradient id="paint6_linear_59_959" x1="22.8648" y1="6.79655" x2="37.0969" y2="9.66646" gradientUnits="userSpaceOnUse">
<stop stop-color="#650CFE"/>
<stop offset="0.2538" stop-color="#771DFE"/>
<stop offset="0.7575" stop-color="#A449FF"/>
<stop offset="1" stop-color="#BC61FF"/>
</linearGradient>
<linearGradient id="paint7_linear_59_959" x1="22.8649" y1="6.79655" x2="37.0969" y2="9.66646" gradientUnits="userSpaceOnUse">
<stop stop-color="#650CFE"/>
<stop offset="0.2538" stop-color="#771DFE"/>
<stop offset="0.7575" stop-color="#A449FF"/>
<stop offset="1" stop-color="#BC61FF"/>
</linearGradient>
<linearGradient id="paint8_linear_59_959" x1="22.8649" y1="6.79655" x2="37.0969" y2="9.66646" gradientUnits="userSpaceOnUse">
<stop stop-color="#650CFE"/>
<stop offset="0.2538" stop-color="#771DFE"/>
<stop offset="0.7575" stop-color="#A449FF"/>
<stop offset="1" stop-color="#BC61FF"/>
</linearGradient>
<linearGradient id="paint9_linear_59_959" x1="22.8649" y1="6.79655" x2="37.0969" y2="9.66646" gradientUnits="userSpaceOnUse">
<stop stop-color="#650CFE"/>
<stop offset="0.2538" stop-color="#771DFE"/>
<stop offset="0.7575" stop-color="#A449FF"/>
<stop offset="1" stop-color="#BC61FF"/>
</linearGradient>
<linearGradient id="paint10_linear_59_959" x1="0.364657" y1="6.65577" x2="20.5504" y2="38.638" gradientUnits="userSpaceOnUse">
<stop stop-color="#FFB370"/>
<stop offset="0.2364" stop-color="#FF9284"/>
<stop offset="0.7562" stop-color="#FF4FAE"/>
<stop offset="1" stop-color="#FF34BF"/>
</linearGradient>
<linearGradient id="paint11_linear_59_959" x1="25.9495" y1="21.3235" x2="56.3753" y2="23.0044" gradientUnits="userSpaceOnUse">
<stop stop-color="#6A11FE"/>
<stop offset="0.3337" stop-color="#A147FF"/>
<stop offset="0.5225" stop-color="#BC61FF"/>
<stop offset="0.5873" stop-color="#BE66FF"/>
<stop offset="0.6652" stop-color="#C475FF"/>
<stop offset="0.7499" stop-color="#CF8DFF"/>
<stop offset="0.8394" stop-color="#DDAFFF"/>
<stop offset="0.9317" stop-color="#EFDAFF"/>
<stop offset="1" stop-color="white"/>
</linearGradient>
</defs>
</svg>
